PathFileType	4	(X/Y/Z)	Kaydara																																																																																																																									
DataRate	CameraRate	NumFrames	NumMarkers	Units	OrigDataRate	OrigDataStartFrame	OrigNumFrames																																																																																																																					
30	30	8	41	mm	30	219	349																																																																																																																					
Frame#	Time	EMLA_LFHD			EMLA_RFHD			EMLA_LBHD			EMLA_RBHD			EMLA_LFTShould			EMLA_RFTShould			EMLA_LRRShould			EMLA_RRRShould			EMLA_T10			EMLA_STRN			EMLA_TRUN			EMLA_LSHO			EMLA_LUPA			EMLA_LELB			EMLA_LFRM			EMLA_LWRA			EMLA_LWRB			EMLA_LFIN			EMLA_RSHO			EMLA_RUPA			EMLA_RELB			EMLA_RFRM			EMLA_RWRA			EMLA_RWRB			EMLA_RFIN			EMLA_LFWT			EMLA_RFWT			EMLA_LBWT			EMLA_RBWT			EMLA_LTHI			EMLA_LKNE			EMLA_LSHN			EMLA_LANK			EMLA_LHEE			EMLA_LTOE			EMLA_RTHI			EMLA_RKNE			EMLA_RSHN			EMLA_RANK			EMLA_RHEE			EMLA_RTOE		
		X1	Y1	Z1	X2	Y2	Z2	X3	Y3	Z3	X4	Y4	Z4	X5	Y5	Z5	X6	Y6	Z6	X7	Y7	Z7	X8	Y8	Z8	X9	Y9	Z9	X10	Y10	Z10	X11	Y11	Z11	X12	Y12	Z12	X13	Y13	Z13	X14	Y14	Z14	X15	Y15	Z15	X16	Y16	Z16	X17	Y17	Z17	X18	Y18	Z18	X19	Y19	Z19	X20	Y20	Z20	X21	Y21	Z21	X22	Y22	Z22	X23	Y23	Z23	X24	Y24	Z24	X25	Y25	Z25	X26	Y26	Z26	X27	Y27	Z27	X28	Y28	Z28	X29	Y29	Z29	X30	Y30	Z30	X31	Y31	Z31	X32	Y32	Z32	X33	Y33	Z33	X34	Y34	Z34	X35	Y35	Z35	X36	Y36	Z36	X37	Y37	Z37	X38	Y38	Z38	X39	Y39	Z39	X40	Y40	Z40	X41	Y41	Z41
																																																																																																																												
219	7.277	193.45861	1609.98947	408.65738	25.20427	1584.83551	400.14011	214.53207	1609.8674	259.27961	21.60251	1583.89816	247.35409	219.4503	1377.89642	347.52674	70.78453	1362.53525	359.13914	199.59105	1422.06863	197.57017	41.96732	1407.96677	210.79039	133.36376	1244.55444	155.9455	148.97572	1304.2778	391.05999	147.07661	1201.62437	411.63708	340.35954	1404.7789	282.86749	397.68036	1226.39961	241.59676	416.62746	1084.92668	218.82515	421.08765	948.11478	225.09567	381.20419	806.98784	337.5399	407.54639	785.59265	258.27608	428.85605	755.23804	317.14052	-60.27072	1389.59198	302.11229	-112.24863	1193.81744	329.75029	-126.49215	1050.53391	331.23669	-124.80361	948.46886	343.75973	-37.79708	808.58505	463.63766	-94.98989	778.09944	404.46266	-96.79295	758.02597	466.43314	246.14687	960.43808	386.31874	11.90208	964.54575	394.64306	204.76339	972.53227	186.47184	29.69973	984.94041	204.73679	274.08884	688.5141	211.95536	325.93533	495.35252	254.84631	305.14254	331.67156	167.14159	295.82222	241.36717	-0.14476	220.0724	224.08409	-82.04897	263.60794	61.00302	12.77703	3.98906	677.93724	225.38601	1.45173	482.7298	313.0117	69.81438	268.99357	344.52946	47.97355	96.47477	289.64293	111.01376	47.878	240.97141	74.7824	46.44554	441.45241
220	7.31	188.30053	1611.1351	421.21025	20.30964	1584.20471	412.98439	209.25583	1610.80261	271.82652	16.46714	1582.9155	260.18896	215.75764	1378.61847	359.46049	67.4145	1363.16681	372.79655	194.2252	1422.36542	209.47393	36.73864	1408.19427	224.50138	127.66122	1244.99893	168.45291	145.91093	1304.82666	403.78059	144.29794	1202.12234	424.22188	335.89432	1405.71091	293.5667	392.88502	1227.02026	253.9616	411.50024	1084.89822	232.72871	413.58013	947.2657	246.99114	371.08047	815.15923	369.03385	396.84143	787.76512	291.42878	417.61189	761.1824	352.26128	-64.20177	1390.19165	317.33501	-115.62086	1194.7744	347.84931	-129.83099	1051.57593	351.81133	-127.70072	949.58984	366.5469	-39.42109	812.929	489.1861	-96.48264	780.70816	430.87395	-98.30988	762.47574	493.52776	242.26055	961.35574	398.26633	7.99067	963.8166	407.23637	201.21225	972.10533	198.48026	25.90284	984.67033	217.12414	273.35505	684.56017	233.97997	322.38899	494.46144	286.9009	302.19791	334.28852	196.05076	291.7001	248.66882	26.25116	214.19304	231.34136	-53.62706	270.29963	66.36466	34.91136	2.18164	678.74054	234.76404	-0.14033	482.28844	319.11011	68.84996	268.28495	347.62428	47.8647	96.53624	290.30188	111.00746	48.37485	241.04288	74.70106	46.35834	441.48624
221	7.343	183.9765	1612.02621	433.35327	16.18661	1583.65494	425.84408	204.01621	1612.19833	283.89166	11.66646	1582.73422	272.98002	212.54808	1379.66873	370.43537	64.59559	1364.01993	385.89306	188.97568	1422.89719	220.58254	31.55314	1408.6821	237.91027	122.13227	1245.67963	180.45238	143.37879	1305.73425	415.89024	142.02394	1202.85805	435.84232	331.70761	1406.65314	302.98944	388.62862	1227.22542	265.62288	407.46937	1085.0354	246.74015	407.0602	947.08572	268.7652	360.74383	824.12567	398.65982	386.93871	791.11671	323.42384	406.40095	768.44566	386.24203	-67.72531	1390.93979	332.47375	-118.63731	1195.88387	365.91022	-132.86686	1052.76253	371.51405	-130.18298	950.81001	387.81456	-40.18185	816.59523	511.92818	-97.64129	783.069	454.62612	-98.87685	765.94078	517.59521	238.93127	962.63939	410.26844	4.59186	962.89574	418.56079	199.14101	972.03156	210.30533	23.48596	984.4133	228.49716	272.46584	682.01088	255.33318	317.90199	495.01579	316.95852	298.72744	335.61863	226.88627	285.89008	249.55057	57.06995	205.14292	227.03011	-20.29406	278.42915	68.40139	69.92157	2.23799	679.57855	242.4934	-0.77726	481.95175	324.00124	68.49489	267.8896	350.19176	47.99576	96.81627	290.75018	111.334	48.79229	241.13907	74.74826	46.33977	441.54667
222	7.377	180.31109	1612.80472	445.29095	12.78981	1582.95029	438.65807	199.63242	1613.93875	295.65332	7.22362	1582.76917	285.821	209.58008	1380.97443	381.03256	61.89166	1365.16708	398.58898	183.9868	1423.27621	231.26577	26.75659	1409.21127	250.77894	116.98715	1246.27769	192.16991	141.10866	1306.93024	427.64378	140.04739	1203.94531	447.13116	327.75883	1407.70065	311.89735	384.69078	1227.81349	276.50934	404.01497	1085.36575	259.93275	401.34342	947.67876	289.3	351.24317	833.72147	425.79399	377.87201	795.61958	353.18378	396.09062	776.63628	417.58404	-70.9661	1391.81854	347.0718	-121.31836	1197.12128	383.33199	-135.45403	1053.98903	390.47894	-132.47798	952.17087	407.69661	-40.1359	819.3409	531.68491	-98.65927	785.21561	475.76309	-98.59794	768.70056	538.90491	235.9688	963.95058	421.89148	1.48793	961.89201	428.9381	198.03782	972.41425	221.76004	22.07902	984.18335	239.05561	271.59128	680.39856	275.93452	313.63281	495.61279	346.02833	294.50972	334.19247	260.10088	280.99287	243.47652	92.1673	198.617	216.54503	15.87203	280.65506	66.31957	113.00907	3.35345	680.17128	249.50119	-1.12165	481.61465	328.75961	68.35485	267.2934	352.78866	48.44393	96.91698	291.29763	111.85427	49.05572	241.33635	74.66074	46.21732	441.45851
223	7.41	177.27688	1613.13095	457.17552	9.9244	1582.15134	451.5303	195.21439	1615.12268	307.40284	3.26956	1582.78595	298.72192	206.7841	1382.02713	391.82503	59.51323	1366.12244	411.04633	179.59774	1423.76877	242.11626	22.60198	1409.62769	263.4466	112.6639	1246.8502	203.59016	138.91417	1307.86377	439.25346	138.06279	1204.80469	458.59215	324.14833	1408.67142	321.43272	381.33438	1228.48221	287.31388	400.86571	1085.85609	272.50835	396.36497	948.7796	308.26914	343.36399	842.86751	450.14103	370.55313	800.79056	379.53201	387.36931	784.7374	445.46741	-73.81152	1392.49985	361.06087	-123.57472	1198.17001	399.74564	-137.68634	1055.08385	408.18214	-134.1855	953.20625	425.89272	-39.28607	821.12152	548.57403	-99.11314	786.69907	494.2123	-97.57998	770.52658	557.46845	233.78975	964.99916	432.69657	-0.82757	960.98488	439.17667	197.29525	972.51129	232.41392	21.16034	983.91579	249.07375	271.98925	679.0876	296.06953	310.01974	496.33804	375.25681	289.95869	332.65102	294.27738	275.4752	237.1047	128.75954	192.05612	205.73332	52.86962	281.43473	66.44373	160.04116	3.94764	680.78339	256.95683	-1.3185	481.26278	333.5276	68.224	266.78146	355.25974	48.70739	97.03201	291.8956	112.12204	49.47371	241.45435	74.61048	46.36133	441.74519
224	7.443	174.78704	1613.11798	469.10564	7.55523	1581.2738	464.51401	191.65203	1615.92133	319.2654	-0.20196	1582.56088	311.8157	204.32861	1382.43744	402.83005	57.4378	1366.34476	423.27068	175.89685	1424.09515	253.11592	19.05522	1409.89197	275.9029	109.1662	1247.3394	214.72113	137.01638	1308.10089	450.72727	136.35386	1205.02304	469.79015	321.10733	1409.35364	331.67793	378.58704	1228.88847	298.76368	398.44048	1086.24397	285.13	392.4765	949.87358	325.71651	337.30614	850.54298	471.32927	364.45217	805.26497	402.75101	380.60219	791.78391	469.39739	-76.24207	1392.72491	374.69749	-125.38588	1198.56331	414.89803	-139.52168	1055.45776	423.95939	-135.6234	953.56987	441.87954	-38.22635	821.87668	562.99362	-99.15025	787.27089	510.00233	-96.23631	771.2394	573.24604	232.18676	965.74738	442.99664	-1.93534	961.07391	452.2147	196.74944	972.11533	242.59201	20.34355	983.3728	258.93963	273.55574	678.29086	315.84827	307.23129	497.94292	404.02771	285.79811	331.66454	328.83991	270.11816	230.02144	167.30991	187.28973	193.54586	90.68917	277.68908	67.8934	213.23914	4.29271	681.26579	263.97781	-1.41023	480.85907	338.03032	68.19244	266.18698	357.55875	48.93135	97.30624	292.41684	112.35758	49.8728	241.50864	74.50208	46.25679	441.78967
225	7.477	172.68497	1612.90344	481.36055	5.60431	1580.06149	477.62905	188.60315	1616.56723	331.3699	-3.02903	1582.09641	324.96639	202.33681	1382.62085	413.98975	55.62368	1366.29868	435.43262	172.85669	1424.44595	264.43626	16.14028	1410.02136	288.23025	106.22711	1247.82532	225.73086	135.42079	1307.97775	462.15237	134.95253	1204.8484	480.76931	318.59562	1409.93378	342.25113	376.48315	1229.44168	310.54853	396.73637	1086.62048	297.87283	389.86523	950.90385	341.55136	332.68837	855.86693	489.25583	360.27721	808.53905	422.26254	375.80276	796.8557	489.44145	-78.30064	1392.44232	387.95364	-126.8651	1198.08121	428.4462	-140.83948	1055.00114	437.59495	-136.59328	953.07884	455.47279	-37.11429	821.57646	575.0589	-98.8836	786.90353	523.06217	-94.85719	770.86594	586.22864	230.91824	966.54503	453.2225	-4.06087	957.61032	457.08015	196.44085	971.81366	252.71383	19.7404	982.90222	268.75393	274.66131	677.96402	335.07259	304.87776	499.86557	431.72485	281.49048	329.72225	364.86519	266.15425	219.21131	208.95065	184.4857	178.33775	131.89973	270.78606	66.00963	269.20538	5.01885	681.80489	270.90635	-1.14885	480.44975	342.37411	68.3018	265.62246	359.9194	49.42491	97.48301	293.04304	112.64387	50.21404	241.66956	74.47602	46.14874	441.8787
226	7.51	170.98484	1612.33002	493.87566	4.06682	1578.66089	490.81577	186.11015	1617.06757	343.82603	-5.34714	1581.6452	338.24379	200.70744	1382.77939	425.32478	54.18352	1366.13174	447.55836	170.53509	1424.68475	275.84543	13.8852	1410.03098	300.43362	103.98795	1248.10074	236.84895	134.10657	1307.86942	473.69392	133.94923	1204.66507	491.84505	316.57703	1410.44128	353.14518	375.02026	1229.75708	322.31056	395.68893	1087.06253	310.59341	388.41805	951.62132	355.67055	329.97051	858.46581	503.92365	358.2629	810.28252	437.82867	372.97073	799.50287	505.36629	-79.96694	1391.94946	400.79941	-128.05113	1197.21603	440.55729	-141.67012	1054.05441	449.13204	-136.99038	952.04254	466.52054	-36.1119	820.36606	584.78107	-98.21501	785.68771	533.17131	-93.61054	769.48349	596.25408	229.94415	967.10777	463.18272	-4.91149	956.42326	467.48581	196.47388	971.64474	262.6263	19.65804	982.5618	278.55938	275.10202	677.8228	353.59436	302.29635	502.29832	458.07137	277.83625	327.80727	401.76083	262.836	206.91277	253.82763	181.13493	160.15615	177.73636	265.81614	63.56267	327.74036	6.33865	682.19971	277.86381	-0.94218	480.02907	346.74919	68.43921	265.0289	362.36965	49.7194	97.65207	293.46615	112.77186	50.68312	241.56796	74.35355	46.11804	441.87813
